<?xml version="1.0" encoding="UTF-8" standalone="no"?>
<!-- Generator: Adobe Illustrator 27.5.0, SVG Export Plug-In . SVG Version: 6.00 Build 0)  -->

<svg
   version="1.1"
   x="0px"
   y="0px"
   viewBox="-60 -60 699.92675 533.10645"
   xml:space="preserve"
   id="svg128"
   sodipodi:docname="heroin1-dark.svg"
   inkscape:version="1.3 (0e150ed6c4, 2023-07-21)"
   width="700.03802"
   height="533.19098"
   xmlns:inkscape="http://www.inkscape.org/namespaces/inkscape"
   xmlns:sodipodi="http://sodipodi.sourceforge.net/DTD/sodipodi-0.dtd"
   xmlns="http://www.w3.org/2000/svg"
   xmlns:svg="http://www.w3.org/2000/svg"><defs
   id="defs128" /><sodipodi:namedview
   id="namedview128"
   pagecolor="#ffffff"
   bordercolor="#000000"
   borderopacity="0.25"
   inkscape:showpageshadow="2"
   inkscape:pageopacity="0.0"
   inkscape:pagecheckerboard="0"
   inkscape:deskcolor="#d1d1d1"
   showgrid="false"
   inkscape:zoom="1.1682331"
   inkscape:cx="370.64521"
   inkscape:cy="248.66613"
   inkscape:window-width="1920"
   inkscape:window-height="1017"
   inkscape:window-x="1358"
   inkscape:window-y="-8"
   inkscape:window-maximized="1"
   inkscape:current-layer="svg128"
   labelstyle="default" />&#10;&#10;&#10;	<g
   id="Objetcs"
   transform="matrix(1.4165737,0,0,1.4119978,-65.556523,-105.94227)">&#10;	&#10;		<g
   id="g118">&#10;		&#10;			<g
   id="g60">&#10;			&#10;				<g
   id="g12">&#10;				&#10;					<path
   style="fill:#d1d3d4"
   d="m 351.388,212.888 c 0,0.883 0,36.004 0,36.004 H 327.32 v -1.715 h 6.624 v -34.289 z"
   id="path2" />&#10;				&#10;					<path
   style="fill:#a7adaf"
   d="m 333.944,212.888 v 20.615 c 4.108,-1.033 10.383,-1.765 17.444,0.327 0,-9.649 0,-20.457 0,-20.942 z"
   id="path3" />&#10;				&#10;					<g
   id="g4">&#10;					&#10;						<polygon
   style="fill:#d1d3d4"
   points="299.501,174.547 393.663,174.547 389.034,229.643 294.872,229.643 "
   id="polygon3" />&#10;					&#10;						<polygon
   style="fill:#4e345b"
   points="300.926,176.522 389.832,176.522 385.534,227.668 296.629,227.668 "
   id="polygon4" />&#10;				&#10;					</g>&#10;				&#10;					<polygon
   style="fill:#a7adaf"
   points="351.388,247.177 351.388,248.892 327.319,248.892 327.319,247.177 333.944,247.177 "
   id="polygon5" />&#10;				&#10;					<g
   id="g11">&#10;					&#10;						<polygon
   style="fill:#ffffff"
   points="321.675,187.186 368.158,187.186 365.549,217.004 319.066,217.004 "
   id="polygon6" />&#10;					&#10;						<polygon
   style="fill:#ea7880"
   points="321.675,187.186 368.158,187.186 367.848,190.729 321.365,190.729 "
   id="polygon7" />&#10;					&#10;						<polygon
   style="opacity:0.3;fill:#ffffff"
   points="308.031,179.99 358.221,179.99 358.078,181.626 307.888,181.626 "
   id="polygon8" />&#10;					&#10;						<polygon
   style="opacity:0.3;fill:#ffffff"
   points="307.773,182.936 357.964,182.936 357.82,184.572 307.63,184.572 "
   id="polygon9" />&#10;					&#10;						<polygon
   style="opacity:0.3;fill:#ffffff"
   points="330.348,221.722 380.538,221.722 380.395,223.359 330.205,223.359 "
   id="polygon10" />&#10;					&#10;						<polygon
   style="opacity:0.3;fill:#ffffff"
   points="302.635,219.213 323.265,219.213 323.122,220.849 302.492,220.849 "
   id="polygon11" />&#10;					&#10;						&#10;						<text
   transform="matrix(0.9962,0,-0.0872,0.9962,323.6899,206.3563)"
   style="font-size:13.5681px;font-family:Courier;fill:#383838"
   id="text11">&lt;PHP&gt;</text>&#10;				&#10;					</g>&#10;			&#10;				</g>&#10;			&#10;				<g
   id="g14">&#10;				&#10;					<g
   id="g13">&#10;					&#10;						<path
   style="fill:#f95b5e"
   d="m 328.317,236.76 c -0.099,-0.032 -0.204,-0.047 -0.308,-0.047 h -1.849 v -2.031 c 0,-0.164 -0.09,-0.312 -0.236,-0.386 -0.529,-0.266 -2.075,-0.807 -5.899,-0.807 -3.902,0 -5.433,0.563 -5.93,0.822 -0.126,0.066 -0.206,0.192 -0.206,0.334 v 14.318 c 0,0 1.653,1.026 5.761,1.026 4.108,0 6.511,-1.026 6.511,-1.026 v -1.283 h 2.21 c 0.186,0 0.368,-0.05 0.527,-0.145 0.309,-0.185 1.852,-1.32 1.852,-5.474 -10e-4,-4.407 -2.184,-5.223 -2.433,-5.301 z m -0.362,8.877 h -1.796 v -6.88 h 1.584 c 0.263,0.211 0.957,0.987 0.957,3.305 0.001,2.25 -0.51,3.236 -0.745,3.575 z"
   id="path12" />&#10;					&#10;						<path
   style="fill:#7c2327"
   d="m 325.556,234.729 c 0,0.49 -2.477,0.887 -5.532,0.887 -3.055,0 -5.532,-0.397 -5.532,-0.887 0,-0.49 2.477,-0.887 5.532,-0.887 3.055,0 5.532,0.397 5.532,0.887 z"
   id="path13" />&#10;				&#10;					</g>&#10;			&#10;				</g>&#10;			&#10;				<g
   id="g32">&#10;				&#10;					<path
   style="fill:#d1d3d4"
   d="m 198.731,213.384 c 0,0.883 0,36.004 0,36.004 h 24.068 v -1.715 h -6.624 v -34.289 z"
   id="path14" />&#10;				&#10;					<path
   style="fill:#a7adaf"
   d="m 216.175,213.384 v 20.615 c -4.109,-1.033 -10.383,-1.765 -17.444,0.327 0,-9.649 0,-20.457 0,-20.942 z"
   id="path15" />&#10;				&#10;					<g
   id="g16">&#10;					&#10;						<polygon
   style="fill:#d1d3d4"
   points="250.617,175.043 156.455,175.043 161.085,230.139 255.247,230.139 "
   id="polygon15" />&#10;					&#10;						<polygon
   style="fill:#4e345b"
   points="249.192,177.018 160.287,177.018 164.585,228.164 253.49,228.164 "
   id="polygon16" />&#10;				&#10;					</g>&#10;				&#10;					<polygon
   style="fill:#a7adaf"
   points="198.731,247.673 198.731,249.388 222.799,249.388 222.799,247.673 216.175,247.673 "
   id="polygon17" />&#10;				&#10;					<g
   id="g31">&#10;					&#10;						<text
   transform="matrix(0.9811,0,0.0872,0.9962,164.6222,181.3019)"
   id="text27"><tspan
     x="0"
     y="0"
     style="font-size:2.0459px;font-family:Courier;fill:#ffffff"
     id="tspan17">&lt;html&gt;</tspan><tspan
     x="0"
     y="2.4549999"
     style="font-size:2.0459px;font-family:Courier;fill:#ffffff"
     id="tspan18">     &lt;head&gt;</tspan><tspan
     x="0"
     y="4.9099998"
     style="font-size:2.0459px;font-family:Courier;fill:#ffffff"
     id="tspan19">         &lt;title&gt;... /picture/title;</tspan><tspan
     x="0"
     y="7.3649998"
     style="font-size:2.0459px;font-family:Courier;fill:#ffffff"
     id="tspan20">               lorem ipsum Lorem ipsum dolor sit amet,</tspan><tspan
     x="0"
     y="9.8199997"
     style="font-size:2.0459px;font-family:Courier;letter-spacing:4.077;fill:#ffffff"
     id="tspan21" /><tspan
     x="18.413"
     y="9.8199997"
     style="font-size:2.0459px;font-family:Courier;fill:#ffffff"
     id="tspan22">consectetur adipiscing elit, sed do</tspan><tspan
     x="0"
     y="12.275"
     style="font-size:2.0459px;font-family:Courier;letter-spacing:4.077;fill:#ffffff"
     id="tspan23" /><tspan
     x="18.413"
     y="12.275"
     style="font-size:2.0459px;font-family:Courier;fill:#ffffff"
     id="tspan24">eiusmod mmodo</tspan><tspan
     x="0"
     y="14.73"
     style="font-size:2.0459px;font-family:Courier;letter-spacing:4.077;fill:#ffffff"
     id="tspan25" /><tspan
     x="18.413"
     y="14.73"
     style="font-size:2.0459px;font-family:Courier;fill:#ffffff"
     id="tspan26">consequat.(copyrigth)</tspan><tspan
     x="0"
     y="17.186001"
     style="font-size:2.0459px;font-family:Courier;fill:#ffffff"
     id="tspan27">&lt;html&gt;</tspan></text>&#10;					&#10;						<polygon
   style="opacity:0.3;fill:#ffffff"
   points="223.465,199.386 245.211,199.386 247.114,221.133 225.368,221.133 "
   id="polygon27" />&#10;					&#10;						<polygon
   style="opacity:0.3;fill:#ffffff"
   points="221.209,199.386 206.929,199.386 207.063,200.92 221.344,200.92 "
   id="polygon28" />&#10;					&#10;						<polygon
   style="opacity:0.3;fill:#ffffff"
   points="221.486,202.544 215.421,202.544 215.555,204.079 221.62,204.079 "
   id="polygon29" />&#10;					&#10;						<polygon
   style="opacity:0.3;fill:#ffffff"
   points="221.762,205.703 212.404,205.703 212.538,207.237 221.896,207.237 "
   id="polygon30" />&#10;					&#10;						<polygon
   style="opacity:0.3;fill:#ffffff"
   points="222.038,208.861 208.12,208.861 208.254,210.395 222.173,210.395 "
   id="polygon31" />&#10;				&#10;					</g>&#10;			&#10;				</g>&#10;			&#10;				<g
   id="g49">&#10;				&#10;					<polygon
   style="fill:#d1d3d4"
   points="307.196,204.969 232.904,204.969 225.18,248.777 299.471,248.777 "
   id="polygon32" />&#10;				&#10;					<polygon
   style="fill:#260938"
   points="305.681,205.973 233.95,205.973 226.491,247.773 298.223,247.773 "
   id="polygon33" />&#10;				&#10;					<rect
   x="196.696"
   y="245.96201"
   style="fill:#acaeaf"
   width="102.775"
   height="2.8150001"
   id="rect33" />&#10;				&#10;					<text
   transform="matrix(0.9848,0,-0.1736,0.9848,234.8311,209.947)"
   id="text49"><tspan
     x="0"
     y="0"
     style="font-size:2.0382px;font-family:Courier;fill:#d7df23"
     id="tspan33">&lt;html&gt;</tspan><tspan
     x="0"
     y="2.4449999"
     style="font-size:2.0382px;font-family:Courier;fill:#d7df23"
     id="tspan34">     &lt;head&gt;</tspan><tspan
     x="0"
     y="4.8920002"
     style="font-size:2.0382px;font-family:Courier;fill:#d7df23"
     id="tspan35">         &lt;title&gt;... /picture/title;</tspan><tspan
     x="0"
     y="7.3369999"
     style="font-size:2.0382px;font-family:Courier;fill:#d7df23"
     id="tspan36">               lorem ipsum Lorem ipsum dolor sit amet,</tspan><tspan
     x="0"
     y="9.783"
     style="font-size:2.0382px;font-family:Courier;letter-spacing:4.062;fill:#d7df23"
     id="tspan37" /><tspan
     x="18.343"
     y="9.783"
     style="font-size:2.0382px;font-family:Courier;fill:#d7df23"
     id="tspan38">consectetur adipiscing elit, sed do</tspan><tspan
     x="0"
     y="12.229"
     style="font-size:2.0382px;font-family:Courier;letter-spacing:4.062;fill:#d7df23"
     id="tspan39" /><tspan
     x="18.343"
     y="12.229"
     style="font-size:2.0382px;font-family:Courier;fill:#d7df23"
     id="tspan40">eiusmod tempor incididunt ut labore et</tspan><tspan
     x="0"
     y="14.675"
     style="font-size:2.0382px;font-family:Courier;letter-spacing:4.062;fill:#d7df23"
     id="tspan41" /><tspan
     x="18.343"
     y="14.675"
     style="font-size:2.0382px;font-family:Courier;fill:#d7df23"
     id="tspan42">dolore magna aliqua. Ut enim ad minim</tspan><tspan
     x="0"
     y="17.120001"
     style="font-size:2.0382px;font-family:Courier;letter-spacing:4.062;fill:#d7df23"
     id="tspan43" /><tspan
     x="18.343"
     y="17.120001"
     style="font-size:2.0382px;font-family:Courier;fill:#d7df23"
     id="tspan44">veniam, quis nostrud exercitation ullamco</tspan><tspan
     x="0"
     y="19.566"
     style="font-size:2.0382px;font-family:Courier;letter-spacing:4.062;fill:#d7df23"
     id="tspan45" /><tspan
     x="18.343"
     y="19.566"
     style="font-size:2.0382px;font-family:Courier;fill:#d7df23"
     id="tspan46">laboris nisi ut aliquip ex ea commodo</tspan><tspan
     x="0"
     y="22.011999"
     style="font-size:2.0382px;font-family:Courier;letter-spacing:4.062;fill:#d7df23"
     id="tspan47" /><tspan
     x="18.343"
     y="22.011999"
     style="font-size:2.0382px;font-family:Courier;fill:#d7df23"
     id="tspan48">consequat.(copyrigth)</tspan><tspan
     x="0"
     y="24.458"
     style="font-size:2.0382px;font-family:Courier;fill:#d7df23"
     id="tspan49">&lt;html&gt;</tspan></text>&#10;			&#10;				</g>&#10;			&#10;				<g
   id="g55">&#10;				&#10;					<g
   id="g50">&#10;					&#10;						&#10;						<polyline
   style="fill:none;stroke:#000000;stroke-width:2.8347;stroke-linecap:round;stroke-linejoin:round;stroke-miterlimit:10"
   points="       394.851,253.458 394.851,395.38 307.664,395.38      "
   id="polyline49" />&#10;					&#10;						&#10;						<polyline
   style="fill:none;stroke:#000000;stroke-width:2.8347;stroke-linecap:round;stroke-linejoin:round;stroke-miterlimit:10"
   points="       295.317,264.045 295.317,302.21 394.851,327.376      "
   id="polyline50" />&#10;				&#10;					</g>&#10;				&#10;					<g
   id="g52">&#10;					&#10;						&#10;						<polyline
   style="fill:none;stroke:#000000;stroke-width:2.8347;stroke-linecap:round;stroke-linejoin:round;stroke-miterlimit:10"
   points="       211.003,253.458 211.003,395.38 123.816,395.38      "
   id="polyline51" />&#10;					&#10;						&#10;						<polyline
   style="fill:none;stroke:#000000;stroke-width:2.8347;stroke-linecap:round;stroke-linejoin:round;stroke-miterlimit:10"
   points="       111.469,264.045 111.469,302.21 211.003,327.376      "
   id="polyline52" />&#10;				&#10;					</g>&#10;				&#10;					<rect
   x="101.1"
   y="252.065"
   style="fill:#e8b795"
   width="299.03799"
   height="20.201"
   id="rect52" />&#10;				&#10;					<rect
   x="287.37701"
   y="252.065"
   style="fill:#d3a688"
   width="112.761"
   height="20.201"
   id="rect53" />&#10;				&#10;					<rect
   x="95.757004"
   y="248.052"
   style="fill:#f7c29a"
   width="308.48599"
   height="8.0249996"
   id="rect54" />&#10;				&#10;					<rect
   x="292.89999"
   y="248.052"
   style="fill:#d19c78"
   width="111.343"
   height="8.0249996"
   id="rect55" />&#10;			&#10;				</g>&#10;			&#10;				<g
   id="g59">&#10;				&#10;					<g
   id="g56">&#10;					&#10;						<polygon
   style="fill:#fbb040"
   points="278.269,77.997 367.77,77.997 364.461,115.825 274.96,115.825 "
   id="polygon55" />&#10;					&#10;						&#10;						<text
   transform="matrix(0.9962,0,-0.0872,0.9962,307.8683,100.751)"
   style="font-size:14.6328px;font-family:CourierNewPS-BoldMT;fill:#ffffff"
   id="text55">C++</text>&#10;				&#10;					</g>&#10;				&#10;					<g
   id="g57">&#10;					&#10;						<polygon
   style="fill:#8dc63f"
   points="199.804,104.382 283.848,104.382 280.74,139.902 196.696,139.902 "
   id="polygon56" />&#10;					&#10;						&#10;						<text
   transform="matrix(0.9962,0,-0.0872,0.9962,223.5218,125.3773)"
   style="font-size:13.7406px;font-family:CourierNewPS-BoldMT;fill:#ffffff"
   id="text56">HTML</text>&#10;				&#10;					</g>&#10;				&#10;					<g
   id="g58">&#10;					&#10;						<polygon
   style="fill:#df4438"
   points="269.377,134.588 331.877,134.588 329.566,161.003 267.066,161.003 "
   id="polygon57" />&#10;					&#10;						&#10;						<text
   transform="matrix(0.9962,0,-0.0872,0.9962,289.9618,151.2596)"
   style="font-size:10.2183px;font-family:CourierNewPS-BoldMT;fill:#ffffff"
   id="text57">&lt;/&gt;</text>&#10;				&#10;					</g>&#10;			&#10;				</g>&#10;		&#10;			</g>&#10;		&#10;			<g
   id="g108">&#10;			&#10;				<path
   style="fill:#d89a82"
   d="m 235.57,228.926 c 1.104,-0.036 2.15,0.485 3.063,1.107 3.391,2.312 5.518,6.056 7.119,9.835 0.389,0.919 0.762,1.914 0.564,2.892 -0.038,0.19 -0.105,0.386 -0.256,0.508 -0.135,0.11 -0.316,0.141 -0.489,0.16 -1.255,0.132 -2.558,-0.271 -3.519,-1.088 -1.488,-1.264 -2.081,-3.356 -3.593,-4.592 -0.132,-0.108 -0.281,-0.212 -0.451,-0.22 -0.202,-0.01 -0.381,0.118 -0.545,0.235 -2.76,1.978 -6.262,2.893 -9.637,2.518 -0.855,-0.095 -1.794,-0.33 -2.261,-1.052 -0.371,-0.574 -0.346,-1.318 -0.203,-1.987 0.536,-2.505 2.226,-3.646 4.25,-4.857 1.845,-1.104 3.677,-3.385 5.958,-3.459 z"
   id="path60" />&#10;			&#10;				<path
   style="fill:#d89a82"
   d="m 228.49,232.331 -44.391,-8.166 -15.533,-27.907 c -2.284,-4.104 -7.463,-5.579 -11.566,-3.295 -4.104,2.284 -5.579,7.463 -3.295,11.566 l 17.526,31.487 0.314,0.567 c 1.264,2.259 3.683,3.783 6.455,3.775 l 49.917,-0.132 c 2.171,-0.004 4.054,-1.585 4.435,-3.793 0.257,-1.495 -1.406,-3.71 -3.862,-4.102 z"
   id="path61" />&#10;			&#10;				<path
   style="fill:#eeb399"
   d="m 253.055,231.614 c 1.104,-0.013 2.14,0.529 3.04,1.17 3.343,2.381 5.393,6.168 6.917,9.979 0.37,0.926 0.722,1.929 0.505,2.903 -0.042,0.189 -0.113,0.384 -0.266,0.503 -0.137,0.107 -0.319,0.135 -0.493,0.149 -1.258,0.106 -2.552,-0.323 -3.496,-1.16 -1.461,-1.295 -2.013,-3.398 -3.499,-4.664 -0.13,-0.11 -0.277,-0.218 -0.447,-0.229 -0.202,-0.014 -0.383,0.11 -0.55,0.224 -2.8,1.921 -6.32,2.765 -9.686,2.32 -0.853,-0.113 -1.787,-0.366 -2.239,-1.098 -0.36,-0.581 -0.319,-1.325 -0.163,-1.99 0.587,-2.494 2.3,-3.599 4.349,-4.769 1.868,-1.068 3.746,-3.311 6.028,-3.338 z"
   id="path62" />&#10;			&#10;				<g
   id="g65">&#10;				&#10;					<path
   style="fill:#eeb399"
   d="m 212.098,389.1 c 0.138,1.621 0.268,3.311 -0.332,4.823 -0.484,1.221 -1.436,2.318 -1.431,3.632 0.006,1.354 1.087,2.516 2.336,3.041 1.249,0.525 2.643,0.545 3.997,0.557 8.211,0.072 16.422,0.144 24.633,0.216 0.719,0.006 1.472,0.005 2.108,-0.329 0.636,-0.334 1.099,-1.118 0.826,-1.783 -0.167,-0.405 -0.554,-0.67 -0.93,-0.893 -2.528,-1.502 -5.436,-2.211 -8.296,-2.894 -2.86,-0.683 -5.769,-1.38 -8.309,-2.862 -2.54,-1.482 -4.702,-3.896 -5.15,-6.802 -0.146,-0.949 -0.13,-1.986 -0.699,-2.761 -0.31,-0.422 -0.762,-0.715 -1.219,-0.971 -1.345,-0.753 -2.868,-1.273 -4.406,-1.172 -4.893,0.319 -3.42,4.784 -3.128,8.198 z"
   id="path63" />&#10;				&#10;					<path
   style="fill:#d89e87"
   d="m 223.133,389.447 c -0.799,-1.084 -1.378,-2.308 -1.584,-3.643 -0.146,-0.949 -0.13,-1.986 -0.699,-2.761 -0.31,-0.422 -0.762,-0.715 -1.219,-0.971 -1.344,-0.753 -2.868,-1.273 -4.406,-1.172 -4.893,0.321 -3.42,4.786 -3.128,8.2 0.057,0.672 0.11,1.355 0.113,2.033 1.007,-0.191 2.016,-0.367 3.027,-0.532 2.622,-0.428 5.256,-0.852 7.896,-1.154 z"
   id="path64" />&#10;				&#10;					<path
   style="fill:#31354f"
   d="m 212.671,400.596 c 1.249,0.525 2.643,0.545 3.997,0.557 8.211,0.072 16.422,0.144 24.633,0.216 0.719,0.006 1.472,0.005 2.108,-0.329 0.636,-0.334 1.099,-1.118 0.826,-1.783 -0.167,-0.405 -0.554,-0.67 -0.93,-0.893 -2.528,-1.503 -5.436,-2.211 -8.296,-2.894 -1.611,-0.385 -3.236,-0.779 -4.804,-1.311 6.166,4.281 -18.439,-0.234 -18.439,-0.234 -0.484,1.221 -1.436,2.318 -1.431,3.632 0.006,1.352 1.087,2.514 2.336,3.039 z"
   id="path65" />&#10;			&#10;				</g>&#10;			&#10;				<g
   id="g68">&#10;				&#10;					<path
   style="fill:#eeb399"
   d="m 256.997,338.292 c 0.791,1.422 1.602,2.91 1.676,4.535 0.059,1.312 -0.359,2.703 0.185,3.899 0.561,1.233 2.023,1.849 3.378,1.816 1.354,-0.033 2.634,-0.587 3.874,-1.132 7.518,-3.303 15.036,-6.605 22.554,-9.908 0.658,-0.289 1.344,-0.599 1.787,-1.165 0.443,-0.566 0.544,-1.47 0.022,-1.965 -0.318,-0.301 -0.78,-0.383 -1.215,-0.433 -2.922,-0.333 -5.864,0.213 -8.753,0.763 -2.889,0.55 -5.828,1.108 -8.752,0.798 -2.924,-0.31 -5.886,-1.624 -7.487,-4.091 -0.523,-0.806 -0.934,-1.758 -1.77,-2.231 -0.456,-0.258 -0.989,-0.34 -1.51,-0.386 -1.535,-0.135 -3.138,0.016 -4.499,0.738 -4.332,2.3 -1.157,5.768 0.51,8.762 z"
   id="path66" />&#10;				&#10;					<path
   style="fill:#d89e87"
   d="m 267.204,334.082 c -1.174,-0.661 -2.204,-1.54 -2.939,-2.672 -0.523,-0.806 -0.934,-1.758 -1.77,-2.231 -0.456,-0.258 -0.989,-0.34 -1.51,-0.386 -1.535,-0.135 -3.138,0.016 -4.499,0.738 -4.331,2.3 -1.156,5.768 0.511,8.762 0.328,0.589 0.656,1.191 0.937,1.808 0.84,-0.587 1.688,-1.162 2.543,-1.727 2.214,-1.467 4.442,-2.934 6.727,-4.292 z"
   id="path67" />&#10;				&#10;					<path
   style="fill:#31354f"
   d="m 262.235,348.542 c 1.354,-0.033 2.634,-0.587 3.874,-1.132 7.518,-3.303 15.036,-6.605 22.553,-9.908 0.658,-0.289 1.344,-0.599 1.788,-1.165 0.443,-0.566 0.544,-1.47 0.022,-1.965 -0.318,-0.301 -0.78,-0.384 -1.215,-0.433 -2.922,-0.333 -5.864,0.213 -8.753,0.763 -1.628,0.31 -3.271,0.617 -4.919,0.775 7.379,1.375 -16.912,7.35 -16.912,7.35 0.059,1.312 -0.359,2.703 0.185,3.899 0.56,1.233 2.023,1.849 3.377,1.816 z"
   id="path68" />&#10;			&#10;				</g>&#10;			&#10;				<path
   style="fill:#31354f"
   d="m 136.717,293.309 c 0,0 68.922,-28.743 79.687,-28.396 10.765,0.347 48.883,67.66 48.883,67.66 0,0 -7.192,9.822 -13.665,7.215 0,0 -30.603,-41.529 -34.182,-48.017 0,0 -35.122,17.225 -39.82,17.449 -4.698,0.224 -37.959,-11.689 -40.903,-15.911 z"
   id="path69" />&#10;			&#10;				<path
   style="fill:#1e2133"
   d="m 186.072,273.887 c -4.941,1.809 -10.065,3.747 -15.06,5.676 0.713,0.252 1.477,0.502 2.349,0.749 18.267,5.173 40.903,13.003 40.903,13.003 v 0 c 0.329,-0.159 0.636,-0.308 0.92,-0.446 -15.984,-4.107 -25.861,-14.913 -29.112,-18.982 z"
   id="path70" />&#10;			&#10;				<path
   style="fill:#31354f"
   d="m 130.163,273.536 c 0,0 -19.014,40.273 24.117,41.6 43.13,1.327 45.785,1.106 45.785,1.106 0,0 7.951,66.978 9.942,71.402 0,0 3.76,2.654 13.713,0 0,0 2.665,-62.554 3.55,-74.277 0.885,-11.723 0.111,-15.375 -16.146,-21.233 -22.969,-8.277 -37.763,-11.822 -37.763,-11.822 l -2.492,-10.297 c 0,0 -21.569,2.617 -37.658,-5.106 z"
   id="path71" />&#10;			&#10;				<path
   style="fill:#eeb399"
   d="m 183.308,183.996 -2.443,13.153 c 0,0 -9.954,2.255 -12.211,-3.194 -2.257,-5.449 4.695,-13.341 4.695,-13.341 z"
   id="path72" />&#10;			&#10;				<path
   style="fill:#faa263"
   d="m 169.126,188.412 c 0,0 -18.634,-2.118 -24.987,32.186 -6.353,34.304 -13.976,52.938 -13.976,52.938 0,0 17.364,13.552 43.197,6.776 0,0 10.588,-23.293 18.634,-38.539 8.047,-15.246 6.353,-31.763 -2.541,-42.774 -8.892,-11.011 -20.327,-10.587 -20.327,-10.587 z"
   id="path73" />&#10;			&#10;				<path
   style="fill:#e58e53"
   d="m 196.614,228.233 -17.256,-12.719 c 0,0 8.05,23.268 6.918,37.519 1.935,-3.923 3.892,-7.799 5.719,-11.26 2.355,-4.461 3.869,-9.031 4.619,-13.54 z"
   id="path74" />&#10;			&#10;				<path
   style="fill:#e58e53"
   d="m 154.1,235.783 c 1.883,-0.063 3.792,-0.249 5.544,-0.94 1.593,-0.628 2.999,-1.651 4.316,-2.745 1.551,-1.289 3.027,-2.719 4.019,-4.475 2.526,-4.471 1.527,-10.264 3.931,-14.802 1.034,-1.953 2.637,-3.544 3.808,-5.417 1.538,-2.46 2.294,-5.401 2.133,-8.298 -0.061,-1.104 -0.299,-2.29 -1.123,-3.027 -0.685,-0.613 -1.65,-0.799 -2.568,-0.842 -3.132,-0.15 -6.16,1.05 -9.018,2.34 -6.358,2.87 -12.574,6.415 -17.805,10.977 -1.24,3.414 -2.335,7.383 -3.199,12.045 -0.863,4.658 -1.749,9.016 -2.636,13.088 3.883,1.777 8.523,2.233 12.598,2.096 z"
   id="path75" />&#10;			&#10;				<path
   style="fill:#eeb399"
   d="m 199.505,152.896 c 1.285,3.007 1.309,6.179 1.246,9.428 -0.067,3.417 0.611,6.826 0.406,10.317 -0.404,6.888 -3.298,13.819 -11.046,14.425 -18.311,1.433 -21.566,-6.968 -21.401,-16.092 0.166,-9.124 -0.829,-24.552 14.765,-24.718 6.105,-0.065 12.503,-0.423 15.688,5.905 0.123,0.243 0.236,0.489 0.342,0.735 z"
   id="path76" />&#10;			&#10;				<path
   style="fill:none;stroke:#f95b5e;stroke-miterlimit:10"
   d="m 202.603,167.606 c 0,3.334 -0.734,6.036 -1.639,6.036 -0.905,0 -1.639,-2.702 -1.639,-6.036 0,-3.333 0.734,-6.036 1.639,-6.036 0.905,0 1.639,2.703 1.639,6.036 z"
   id="path77" />&#10;			&#10;				<path
   style="fill:#d89e87"
   d="m 185.424,179.619 c 0,0 -3.477,1.439 -6.928,-3.575 l 4.96,-2.076 z"
   id="path78" />&#10;			&#10;				<path
   style="fill:#eeb399"
   d="m 248.273,234.868 -44.214,-9.072 -14.96,-28.219 c -2.2,-4.15 -7.347,-5.73 -11.497,-3.53 -4.15,2.2 -5.73,7.347 -3.531,11.497 l 16.878,31.838 0.302,0.573 c 1.218,2.284 3.605,3.857 6.377,3.907 l 49.909,0.888 c 2.171,0.041 4.086,-1.502 4.512,-3.702 0.29,-1.489 -1.328,-3.738 -3.776,-4.18 z"
   id="path79" />&#10;			&#10;				<path
   style="fill:#faa263"
   d="m 189.1,197.577 c -2.2,-4.15 -7.347,-5.73 -11.497,-3.53 -4.15,2.2 -5.73,7.347 -3.531,11.497 l 16.878,31.838 0.302,0.573 c 0.093,0.175 0.206,0.337 0.312,0.503 3.875,-6.168 9.179,-11.013 12.094,-13.416 z"
   id="path80" />&#10;			&#10;				&#10;				<path
   style="fill:none;stroke:#a05a2b;stroke-width:0.5669;stroke-linecap:round;stroke-linejoin:round;stroke-miterlimit:10"
   d="m 174.531,190.365 c 2.056,0.757 4.05,1.682 5.955,2.763"
   id="path81" />&#10;			&#10;				<path
   style="fill:#442614"
   d="m 200.698,146.595 c 2.265,2.613 3.345,6.248 3.059,9.68 -0.222,2.673 -1.134,5.246 -2.27,7.677 -1.398,2.991 -3.182,5.86 -5.656,8.046 -2.475,2.186 -5.706,3.642 -9.005,3.513 -3.743,-0.146 -7.005,0.648 -8.813,4.382 -0.462,0.954 -0.736,1.988 -0.933,3.029 -0.708,3.731 -0.404,7.456 0.749,11.041 0.966,3.003 2.385,6.697 0.566,9.686 -1.573,2.585 -4.653,3.197 -6.696,5.183 -1.893,1.84 -2.855,4.535 -3.307,7.082 -0.657,3.702 -0.611,7.644 -2.383,10.96 -2.053,3.843 -6.277,6.154 -10.567,6.911 -4.291,0.757 -8.696,0.17 -12.998,-0.522 -2.708,-0.436 -6.434,-0.48 -7.634,-3.365 -0.878,-2.111 -1.781,-4.295 -1.988,-6.595 -0.191,-2.123 0.728,-4.248 1.174,-6.324 0.436,-2.032 0.91,-4.066 1.694,-5.99 3.599,-8.819 13.241,-14.27 16.146,-23.341 1.072,-3.348 1.131,-6.958 2.24,-10.294 0.777,-2.336 2.048,-4.475 2.995,-6.747 1.119,-2.684 1.778,-5.533 2.431,-8.367 0.778,-3.373 1.111,-7.629 2.766,-10.638 1.537,-2.793 3.888,-5.097 6.602,-6.743 8.973,-5.442 24.331,-6.914 31.828,1.736 z"
   id="path82" />&#10;			&#10;				<path
   style="fill:#35170b"
   d="m 132.821,223.302 c 0.207,2.3 1.11,4.484 1.988,6.595 1.2,2.885 4.926,2.929 7.634,3.365 4.302,0.693 8.707,1.28 12.998,0.522 4.291,-0.757 8.515,-3.068 10.567,-6.912 1.771,-3.316 1.726,-7.258 2.383,-10.96 0.452,-2.547 1.415,-5.242 3.307,-7.082 2.042,-1.986 5.123,-2.599 6.696,-5.183 1.82,-2.989 0.4,-6.683 -0.566,-9.686 -1.153,-3.585 -1.457,-7.309 -0.749,-11.041 0.197,-1.041 0.471,-2.076 0.933,-3.029 1.809,-3.734 5.07,-4.528 8.813,-4.382 3.299,0.129 6.531,-1.327 9.005,-3.513 2.474,-2.186 4.258,-5.055 5.656,-8.046 1.136,-2.43 2.048,-5.003 2.27,-7.677 0.285,-3.432 -0.795,-7.067 -3.059,-9.68 -0.829,-0.956 -1.759,-1.782 -2.761,-2.5 2.844,5.296 3.303,11.908 0.889,17.439 -0.547,-2.666 -1.938,-5.153 -3.923,-7.014 1.117,4.163 0.767,8.704 -0.975,12.647 -0.541,-2.294 -1.946,-4.373 -3.873,-5.731 -2.326,6.548 -10.087,9.401 -14.043,15.114 -5.007,7.231 -2.932,17.333 -6.605,25.326 -2.014,4.384 -5.604,7.8 -8.778,11.433 -3.174,3.633 -6.108,7.889 -6.31,12.71 -0.667,-2.059 -1.334,-4.117 -2.001,-6.176 -2.254,1.759 -3.561,4.88 -6.321,5.63 -1.522,0.414 -3.168,-0.034 -4.541,-0.81 -4.034,-2.28 -5.789,-6.771 -6.508,-11.515 -0.376,1.26 -0.677,2.545 -0.953,3.832 -0.445,2.076 -1.363,4.201 -1.173,6.324 z"
   id="path83" />&#10;			&#10;				<path
   style="fill:#eeb399"
   d="m 185.573,172.504 c -0.704,-0.9 -1.842,-1.4 -2.747,-0.845 -0.529,0.324 -0.903,0.96 -1.104,1.65 -0.201,0.689 -0.246,1.434 -0.254,2.167 -0.012,1.178 0.11,2.475 0.8,3.281 0.595,0.694 1.471,0.851 2.287,0.861 0.415,0.005 0.84,-0.021 1.222,-0.221 0.542,-0.283 0.945,-0.9 1.139,-1.59 0.496,-1.758 -0.351,-4.033 -1.343,-5.303 z"
   id="path84" />&#10;			&#10;				<path
   style="fill:#d89e87"
   d="m 185.049,174.124 c 0.176,0.497 0.353,0.995 0.448,1.514 0.151,0.821 0.09,1.681 -0.174,2.473 -0.02,0.059 -0.053,0.128 -0.115,0.133 -0.06,0.005 -0.104,-0.054 -0.134,-0.107 -0.421,-0.733 -0.702,-1.545 -0.833,-2.379 -0.065,-0.417 -0.093,-0.841 -0.081,-1.263 0.008,-0.289 -0.042,-0.954 0.236,-1.138 0.368,-0.244 0.571,0.535 0.653,0.767 z"
   id="path85" />&#10;			&#10;				&#10;				<path
   style="fill:none;stroke:#a5583d;stroke-width:0.2835;stroke-linecap:round;stroke-linejoin:round;stroke-miterlimit:10"
   d="m 184.671,172.335 c 0,0 -1.364,2.261 0.606,6.152"
   id="path86" />&#10;			&#10;				&#10;				<path
   style="fill:none;stroke:#a5583d;stroke-width:0.2835;stroke-linecap:round;stroke-linejoin:round;stroke-miterlimit:10"
   d="m 184.224,174.098 c -0.004,0.067 0.863,1.595 0.649,3.505"
   id="path87" />&#10;			&#10;				<path
   style="fill:#442614"
   d="m 165.663,148.13 c -0.88,0.661 -1.669,1.542 -2.364,2.448 -0.697,0.917 -1.299,1.907 -1.835,2.932 -0.527,1.03 -0.977,2.101 -1.358,3.198 -0.385,1.096 -0.68,2.221 -0.943,3.355 -0.01,0.047 -0.056,0.078 -0.103,0.068 -0.046,-0.01 -0.076,-0.057 -0.068,-0.103 0.232,-1.146 0.498,-2.288 0.855,-3.406 0.354,-1.118 0.778,-2.215 1.284,-3.277 0.515,-1.057 1.101,-2.084 1.789,-3.045 0.699,-0.959 1.449,-1.864 2.416,-2.634 0.122,-0.098 0.301,-0.077 0.398,0.045 0.097,0.122 0.077,0.301 -0.045,0.398 -0.002,0.001 -0.003,0.003 -0.005,0.004 z"
   id="path88" />&#10;			&#10;				<path
   style="fill:#442614"
   d="m 186.216,140.582 c 1.65,-0.216 3.269,-0.138 4.878,0.092 1.602,0.242 3.186,0.63 4.693,1.223 1.499,0.602 2.971,1.294 4.308,2.202 0.698,0.409 1.316,0.933 1.967,1.408 0.634,0.498 1.215,1.059 1.824,1.586 0.05,0.043 0.056,0.119 0.012,0.169 -0.043,0.049 -0.117,0.055 -0.167,0.014 l -0.01,-0.008 c -0.613,-0.511 -1.197,-1.058 -1.832,-1.539 -0.652,-0.459 -1.27,-0.967 -1.966,-1.358 -1.333,-0.874 -2.796,-1.529 -4.277,-2.096 -1.489,-0.558 -3.048,-0.911 -4.617,-1.121 -1.565,-0.201 -3.182,-0.242 -4.712,-0.016 l -0.023,0.003 c -0.155,0.023 -0.299,-0.084 -0.322,-0.239 -0.023,-0.155 0.084,-0.299 0.239,-0.322 10e-4,0.002 0.003,0.002 0.005,0.002 z"
   id="path89" />&#10;			&#10;				<path
   style="fill:#35170b"
   d="m 187.661,179.517 c -0.04,1.051 -0.634,1.986 -1.053,2.951 -0.419,0.965 -0.642,2.167 -0.009,3.007 0.074,-0.9 0.45,-1.773 1.052,-2.446 0.828,-0.925 2.104,-1.545 2.455,-2.735 0.436,-1.478 -0.803,-3.088 -0.308,-4.547 0.181,-0.535 0.591,-1.025 0.531,-1.587 -0.065,-0.613 -0.681,-1.03 -1.284,-1.157 -1.569,-0.329 -1.979,0.852 -2.069,2.14 -0.108,1.531 0.741,2.871 0.685,4.374 z"
   id="path90" />&#10;			&#10;				&#10;				<path
   style="fill:none;stroke:#a05a2b;stroke-width:0.5669;stroke-linecap:round;stroke-linejoin:round;stroke-miterlimit:10"
   d="m 192.639,232.519 c 2.212,-2.322 4.708,-4.373 7.415,-6.094"
   id="path91" />&#10;			&#10;				&#10;				<path
   style="fill:none;stroke:#a05a2b;stroke-width:0.5669;stroke-linecap:round;stroke-linejoin:round;stroke-miterlimit:10"
   d="m 195.151,228.92 c 1.311,-1.488 2.754,-2.86 4.306,-4.094"
   id="path92" />&#10;			&#10;				&#10;				<path
   style="fill:none;stroke:#a05a2b;stroke-width:0.5669;stroke-linecap:round;stroke-linejoin:round;stroke-miterlimit:10"
   d="m 195.988,225.604 c 0.565,-0.451 1.161,-0.864 1.78,-1.237"
   id="path93" />&#10;			&#10;				&#10;				<path
   style="fill:none;stroke:#a05a2b;stroke-width:0.5669;stroke-linecap:round;stroke-linejoin:round;stroke-miterlimit:10"
   d="m 140.308,273.979 c 7.118,3.385 15.325,3.32 23.206,3.188"
   id="path94" />&#10;			&#10;				&#10;				<path
   style="fill:none;stroke:#a05a2b;stroke-width:0.5669;stroke-linecap:round;stroke-linejoin:round;stroke-miterlimit:10"
   d="m 152.349,275.311 c 3.75,-0.149 7.486,-0.644 11.146,-1.477"
   id="path95" />&#10;			&#10;				<path
   style="fill:#1e2133"
   d="m 219.718,295.771 c 0,0 2.988,10.7 7.607,16.839 v -6.306 c 0,0.001 -4.145,-5.878 -7.607,-10.533 z"
   id="path96" />&#10;			&#10;				&#10;				<path
   style="fill:none;stroke:#7e87aa;stroke-width:0.2835;stroke-linecap:round;stroke-linejoin:round;stroke-miterlimit:10"
   d="m 128.63,293.776 c 0,0 7.397,-0.994 13.69,-0.773 0,0 6.072,12.518 -0.773,13.877 -6.844,1.358 -12.254,-5.597 -12.917,-13.104 z"
   id="path97" />&#10;			&#10;				&#10;				<path
   style="fill:none;stroke:#7e87aa;stroke-width:0.2835;stroke-linecap:round;stroke-linejoin:round;stroke-miterlimit:10"
   d="m 153.734,282.662 c 7.17,-0.714 14.436,-0.454 21.536,0.773"
   id="path98" />&#10;			&#10;				&#10;				<path
   style="fill:none;stroke:#7e87aa;stroke-width:0.2835;stroke-linecap:round;stroke-linejoin:round;stroke-miterlimit:10"
   d="m 131.266,275.308 c -0.217,0.897 -0.534,1.77 -0.943,2.598"
   id="path99" />&#10;			&#10;				&#10;				<path
   style="fill:none;stroke:#7e87aa;stroke-width:0.2835;stroke-linecap:round;stroke-linejoin:round;stroke-miterlimit:10"
   d="m 132.201,275.932 c -0.349,0.913 -0.634,1.851 -0.852,2.805"
   id="path100" />&#10;			&#10;				&#10;				<path
   style="fill:none;stroke:#7e87aa;stroke-width:0.2835;stroke-linecap:round;stroke-linejoin:round;stroke-miterlimit:10"
   d="m 135.835,278.428 c -0.14,0.797 -0.28,1.595 -0.42,2.392"
   id="path101" />&#10;			&#10;				&#10;				<path
   style="fill:none;stroke:#7e87aa;stroke-width:0.2835;stroke-linecap:round;stroke-linejoin:round;stroke-miterlimit:10"
   d="m 137.813,278.948 c -0.298,0.956 -0.538,1.93 -0.72,2.915"
   id="path102" />&#10;			&#10;				&#10;				<path
   style="fill:none;stroke:#7e87aa;stroke-width:0.2835;stroke-linecap:round;stroke-linejoin:round;stroke-miterlimit:10"
   d="m 142.414,280.719 c -0.04,0.867 -0.08,1.733 -0.12,2.6"
   id="path103" />&#10;			&#10;				&#10;				<path
   style="fill:none;stroke:#7e87aa;stroke-width:0.2835;stroke-linecap:round;stroke-linejoin:round;stroke-miterlimit:10"
   d="m 143.957,281.446 c -0.119,0.756 -0.154,1.525 -0.104,2.289"
   id="path104" />&#10;			&#10;				&#10;				<path
   style="fill:none;stroke:#7e87aa;stroke-width:0.2835;stroke-linecap:round;stroke-linejoin:round;stroke-miterlimit:10"
   d="m 148.119,282.383 c -0.035,0.694 -0.069,1.387 -0.104,2.081"
   id="path105" />&#10;			&#10;				&#10;				<path
   style="fill:none;stroke:#7e87aa;stroke-width:0.2835;stroke-linecap:round;stroke-linejoin:round;stroke-miterlimit:10"
   d="m 149.679,282.487 c -0.048,1.11 -0.014,2.224 0.104,3.329"
   id="path106" />&#10;			&#10;				<path
   style="fill:#35170b"
   d="m 153.954,219.213 c 0,0 2.495,-10.547 10.668,-17.118 0,0 -10.546,6.286 -10.668,17.118 z"
   id="path107" />&#10;			&#10;				<path
   style="fill:#35170b"
   d="m 177.509,143.951 c 0.416,-0.083 12.537,-5.079 20.26,2.28 0,0 -7.889,-5.234 -17.282,-2.28 0,0 9.024,1.131 12.152,5.02 0,0 -6.474,-4.035 -12.794,-3.415 0,0 -6.357,3.172 -6.764,11.438 0,0 -1.652,-6.548 5.416,-11.547 0,0 -5.022,-1.542 -11.657,5.814 -0.001,-0.001 1.646,-5.502 10.669,-7.31 z"
   id="path108" />&#10;		&#10;			</g>&#10;		&#10;			<g
   id="g117">&#10;			&#10;				<path
   d="m 160.963,332.052 c -0.942,-0.667 -25.904,-5 -23.423,-52.333 v -48.223 c 0,-4.848 -3.93,-8.777 -8.777,-8.777 h -22.51 c -3.626,0 -6.565,2.939 -6.565,6.565 v 51.102 c 0,0 -1.296,47.333 37.852,51.667 h 23.423 z"
   id="path109" />&#10;			&#10;				<path
   d="m 210.243,332.138 h -69.731 c -1.881,0 -3.42,-1.539 -3.42,-3.42 v -10.857 c 0,-1.881 1.539,-3.42 3.42,-3.42 h 69.731 c 1.881,0 3.42,1.539 3.42,3.42 v 10.857 c 0,1.881 -1.539,3.42 -3.42,3.42 z"
   id="path110" />&#10;			&#10;				<g
   id="g112">&#10;				&#10;					<path
   d="M 206.906,287.147 H 146.21 c -2.088,0 -3.796,-1.708 -3.796,-3.796 V 283.1 c 0,-2.087 1.708,-3.796 3.796,-3.796 h 60.697 c 2.087,0 3.796,1.708 3.796,3.796 v 0.252 c -0.001,2.087 -1.709,3.795 -3.797,3.795 z"
   id="path111" />&#10;				&#10;					<path
   style="fill:#8fbcda"
   d="M 206.053,282.527 H 147.97 c -1.196,0 -2.174,-0.978 -2.174,-2.174 v -0.144 c 0,-1.196 0.979,-2.174 2.174,-2.174 h 58.082 c 1.196,0 2.174,0.978 2.174,2.174 v 0.144 c 0.001,1.196 -0.977,2.174 -2.173,2.174 z"
   id="path112" />&#10;			&#10;				</g>&#10;			&#10;				&#10;				<path
   style="fill:none;stroke:#7d818e;stroke-width:0.5669;stroke-linecap:round;stroke-linejoin:round;stroke-miterlimit:10"
   d="m 105.754,225.092 h 21.711 c 0,0 7.063,0.467 6.9,12.745 -0.162,12.278 0,50.61 0,50.61 0,0 0.586,15.086 4.33,24.164"
   id="path113" />&#10;			&#10;				&#10;				<line
   style="fill:none;stroke:#000000;stroke-width:2.8347;stroke-linecap:round;stroke-linejoin:round;stroke-miterlimit:10"
   x1="198.849"
   y1="285.505"
   x2="198.849"
   y2="316.242"
   id="line113" />&#10;			&#10;				&#10;				<line
   style="fill:none;stroke:#000000;stroke-width:2.8347;stroke-linecap:round;stroke-linejoin:round;stroke-miterlimit:10"
   x1="153.73399"
   y1="285.505"
   x2="153.73399"
   y2="316.242"
   id="line114" />&#10;			&#10;				<path
   d="m 160.727,352.623 h -5.611 c -0.275,0 -0.5,-0.225 -0.5,-0.5 v -32.778 c 0,-0.275 0.225,-0.5 0.5,-0.5 h 5.611 c 0.275,0 0.5,0.225 0.5,0.5 v 32.778 c 0,0.275 -0.224,0.5 -0.5,0.5 z"
   id="path114" />&#10;			&#10;				&#10;				<polyline
   style="fill:none;stroke:#000000;stroke-width:2.8347;stroke-linecap:round;stroke-linejoin:round;stroke-miterlimit:10"
   points="     189.129,393.007 185.487,388.326 129.671,388.326 126.099,393.007    "
   id="polyline114" />&#10;			&#10;				<path
   d="m 129.616,396.826 c 0,2.73 -2.213,4.944 -4.944,4.944 -2.73,0 -4.944,-2.213 -4.944,-4.944 0,-2.731 2.213,-4.944 4.944,-4.944 2.73,0 4.944,2.214 4.944,4.944 z"
   id="path115" />&#10;			&#10;				<path
   d="m 161.851,396.826 c 0,2.73 -1.759,4.944 -3.929,4.944 -2.17,0 -3.929,-2.213 -3.929,-4.944 0,-2.731 1.759,-4.944 3.929,-4.944 2.17,0 3.929,2.214 3.929,4.944 z"
   id="path116" />&#10;			&#10;				<path
   d="m 196.116,396.826 c 0,2.73 -2.213,4.944 -4.944,4.944 -2.73,0 -4.944,-2.213 -4.944,-4.944 0,-2.731 2.213,-4.944 4.944,-4.944 2.73,0 4.944,2.214 4.944,4.944 z"
   id="path117" />&#10;			&#10;				&#10;				<line
   style="fill:none;stroke:#000000;stroke-width:2.8347;stroke-linecap:round;stroke-linejoin:round;stroke-miterlimit:10"
   x1="157.922"
   y1="346.63"
   x2="157.922"
   y2="393.923"
   id="line117" />&#10;			&#10;				&#10;				<polyline
   style="fill:none;stroke:#000000;stroke-width:1.4173;stroke-linecap:round;stroke-linejoin:round;stroke-miterlimit:10"
   points="     156.433,340.228 142.78,340.228 137.093,345.84    "
   id="polyline117" />&#10;		&#10;			</g>&#10;	&#10;		</g>&#10;&#10;	</g>&#10;&#10;&#10;</svg>
